<?xml version="1.0" standalone="no"?>
<!DOCTYPE svg PUBLIC "-//W3C//DTD SVG 20010904//EN"
 "http://www.w3.org/TR/2001/REC-SVG-20010904/DTD/svg10.dtd">
<svg version="1.0" xmlns="http://www.w3.org/2000/svg"
 width="125.000000pt" height="125.000000pt" viewBox="0 0 125.000000 125.000000"
 preserveAspectRatio="xMidYMid meet">
<metadata>
Created by potrace 1.11, written by Peter Selinger 2001-2013
</metadata>
<g transform="translate(0.000000,125.000000) scale(0.100000,-0.100000)"
fill="#000000" stroke="none">
<path d="M633 1237 c-13 -5 -23 -14 -23 -19 0 -5 -10 -2 -22 6 -30 21 -44 20
-68 -4 -16 -16 -25 -18 -40 -10 -23 12 -47 4 -61 -21 -7 -14 -16 -18 -35 -13
-27 7 -64 -18 -64 -43 0 -10 -6 -12 -21 -8 -24 8 -59 -19 -59 -47 0 -11 -7
-18 -20 -18 -27 0 -59 -37 -53 -61 4 -14 0 -19 -14 -19 -27 0 -43 -19 -43 -53
0 -19 -9 -36 -24 -48 -22 -17 -25 -32 -14 -64 1 -5 -7 -20 -19 -32 -22 -22
-23 -32 -8 -67 6 -13 3 -23 -8 -31 -21 -15 -22 -49 -1 -70 13 -13 14 -18 3
-32 -19 -22 -18 -44 4 -70 15 -17 17 -25 8 -42 -13 -24 -2 -55 24 -64 10 -4
13 -15 10 -34 -6 -30 9 -55 38 -66 12 -5 16 -14 13 -32 -3 -18 1 -28 17 -37
12 -7 27 -12 32 -13 6 0 12 -11 13 -24 5 -32 28 -54 52 -48 14 4 21 -2 29 -23
10 -32 46 -56 56 -40 9 15 25 12 25 -5 0 -24 45 -48 68 -36 16 9 23 6 35 -13
16 -24 44 -30 65 -13 9 7 18 5 30 -7 23 -20 56 -21 72 -1 11 13 15 13 33 0 29
-20 43 -19 66 6 14 16 23 18 38 11 24 -13 60 1 68 27 5 17 9 19 25 9 14 -9 23
-8 44 5 14 10 25 23 23 30 -1 7 10 12 28 12 24 0 33 6 45 32 8 18 23 33 32 33
24 0 48 28 48 56 0 13 6 24 13 24 25 0 50 37 43 63 -4 19 -1 26 14 30 24 6 42
47 28 64 -6 7 -1 20 15 37 24 26 27 76 5 76 -5 0 0 12 11 26 25 32 26 47 5 69
-11 10 -13 20 -6 28 19 25 20 56 2 72 -13 12 -17 26 -13 55 5 32 2 40 -17 50
-16 9 -20 17 -16 36 7 28 -12 64 -35 64 -11 0 -16 9 -16 31 0 34 -25 61 -49
52 -10 -3 -14 2 -14 19 0 30 -28 58 -59 58 -12 0 -20 4 -17 8 3 5 -2 19 -11
31 -12 18 -22 22 -44 17 -21 -4 -29 -2 -29 9 0 22 -41 45 -67 39 -17 -5 -28 0
-42 17 -18 22 -22 23 -52 12 -18 -7 -35 -9 -38 -5 -18 22 -37 29 -58 19z m102
-61 c11 -3 21 -5 23 -6 2 -3 3 -3 47 -15 17 -4 51 -20 78 -36 26 -16 50 -29
54 -29 15 0 140 -140 162 -181 26 -50 59 -138 67 -184 7 -39 7 -150 0 -197
-14 -100 -78 -227 -153 -302 -183 -186 -450 -219 -670 -83 -119 73 -222 219
-247 347 -1 3 -4 10 -7 15 -4 6 -6 57 -7 115 0 86 5 119 25 180 61 183 204
321 383 368 66 17 180 21 245 8z"/>
<path d="M504 1138 c-180 -43 -317 -173 -380 -363 -25 -77 -24 -232 3 -295 3
-8 5 -18 5 -23 -4 -14 50 -112 87 -158 72 -90 169 -154 281 -183 99 -26 256
-7 343 41 179 100 282 272 279 468 0 50 -3 97 -5 105 -33 128 -65 188 -147
270 -133 133 -290 179 -466 138z m176 -32 c230 -25 412 -243 405 -486 -1 -41
-7 -95 -14 -120 -45 -167 -180 -301 -351 -347 -36 -10 -159 -11 -200 -2 -130
29 -260 129 -320 248 -17 35 -34 73 -36 85 -33 151 -24 246 34 364 70 144 206
241 362 261 30 4 60 6 65 5 6 -2 30 -5 55 -8z"/>
<path d="M604 873 c-10 -15 -14 -16 -25 -5 -7 6 -20 12 -30 12 -13 0 -18 -14
-23 -65 -8 -82 10 -131 54 -148 l30 -11 -1 -96 c-1 -52 -4 -86 -6 -75 -3 11
-10 31 -16 45 -6 14 -11 27 -12 30 -10 44 -97 160 -108 144 -3 -5 -4 -34 -2
-64 1 -30 3 -65 4 -78 0 -13 4 -21 9 -19 4 3 8 -10 9 -28 1 -18 14 -57 28 -87
l26 -53 -70 75 c-72 77 -78 85 -62 94 12 8 8 76 -7 102 -6 11 -29 33 -51 49
-23 15 -41 31 -41 36 0 5 -7 6 -15 3 -8 -3 -14 -9 -13 -12 3 -26 -5 -41 -24
-44 -16 -2 -22 -9 -20 -20 2 -12 -4 -18 -16 -18 -32 0 -44 -24 -24 -46 9 -10
25 -32 35 -47 10 -16 34 -35 52 -43 43 -18 45 -18 45 4 0 14 -2 15 -10 2 -6
-10 -10 -11 -10 -2 0 6 -8 12 -18 12 -9 0 -26 12 -37 27 -11 15 -28 35 -37 44
-19 20 -14 29 15 29 11 0 17 -3 14 -7 -8 -7 78 -93 93 -93 5 0 6 -8 3 -17 -6
-15 -4 -16 8 -6 8 6 22 11 30 10 18 -3 139 -126 139 -142 0 -6 -3 -5 -8 1 -6
10 -48 36 -62 40 -3 0 -22 8 -42 17 -21 10 -57 19 -81 20 -24 2 -48 7 -54 10
-6 4 -13 4 -16 1 -7 -7 15 -44 26 -44 4 0 24 -12 43 -27 18 -16 37 -28 41 -28
5 -1 18 -6 29 -13 12 -6 24 -8 28 -5 3 3 6 2 6 -4 0 -12 54 -25 117 -28 43 -2
59 12 51 45 -2 7 9 14 25 17 24 3 27 1 27 -26 0 -17 7 -34 16 -39 18 -10 134
5 149 19 5 5 15 9 23 9 13 0 125 72 150 96 49 49 -80 33 -193 -24 -56 -28 -55
-24 24 60 36 38 47 45 62 38 47 -26 102 -1 153 70 39 55 39 70 0 70 -14 0 -24
5 -23 13 4 30 -2 38 -21 32 -11 -4 -21 -2 -21 4 -6 51 -16 53 -67 14 -26 -19
-53 -44 -60 -54 -15 -21 -19 -71 -9 -109 6 -21 -3 -36 -57 -94 l-65 -69 24 49
c34 71 53 153 49 213 -5 75 -12 80 -50 35 -33 -38 -84 -133 -84 -157 0 -6 -5
-19 -10 -27 -6 -10 -9 15 -9 73 0 86 0 87 29 102 47 25 62 64 54 146 -4 38
-10 72 -14 74 -4 3 -18 -3 -31 -14 -22 -18 -23 -18 -38 1 -15 18 -17 18 -27 1z
m-32 -68 c-9 -33 -8 -61 3 -87 4 -10 3 -18 -3 -18 -28 0 -39 105 -15 143 11
18 22 -10 15 -38z m78 -36 c0 -38 -17 -89 -30 -89 -10 0 -29 49 -31 80 -1 14
4 40 11 59 l13 34 19 -22 c10 -14 18 -39 18 -62z m41 64 c1 -27 7 -54 13 -60
3 -3 -4 -23 -15 -45 -24 -47 -34 -44 -20 6 5 20 6 49 2 64 -4 15 -6 33 -4 40
7 18 23 15 24 -5z m-348 -152 c47 -39 53 -48 55 -81 2 -32 1 -33 -11 -15 -22
35 -76 87 -85 81 -7 -4 -8 21 -3 42 1 4 21 -8 44 -27z m607 10 c0 -5 -14 -19
-30 -31 -17 -12 -39 -38 -50 -58 -17 -34 -19 -35 -19 -12 0 35 20 68 55 90 33
21 44 24 44 11z m-647 -43 c37 -20 92 -91 82 -107 -17 -28 -99 24 -120 76 -8
20 -15 37 -15 39 0 8 32 3 53 -8z m227 -48 c12 -9 21 -42 9 -34 -14 8 -1 -38
13 -47 5 -3 8 -10 7 -15 -4 -21 2 -28 11 -14 6 9 10 10 10 3 0 -6 -5 -15 -10
-18 -8 -5 -7 -12 2 -23 10 -12 10 -14 0 -8 -7 4 -24 30 -38 57 -19 39 -23 54
-14 64 7 8 8 20 4 26 -5 9 -10 7 -15 -7 -6 -15 -7 -12 -7 11 1 17 -2 39 -6 50
-4 11 0 7 10 -10 9 -16 20 -32 24 -35z m223 43 c-4 -10 -17 -33 -30 -52 -13
-19 -23 -38 -23 -42 0 -5 -5 -9 -10 -9 -14 0 13 61 41 94 27 31 31 32 22 9z
m234 -3 c-5 -31 -43 -76 -78 -94 -42 -21 -42 -21 -35 10 11 41 37 76 71 90 41
18 45 17 42 -6z m43 -26 c0 -19 -46 -76 -70 -89 -50 -26 -50 -16 3 39 49 51
67 65 67 50z m-314 -91 c-8 -15 -15 -25 -16 -21 0 12 23 58 27 54 3 -2 -2 -17
-11 -33z m-32 -8 c-4 -8 -8 -15 -10 -15 -2 0 -4 7 -4 15 0 8 4 15 10 15 5 0 7
-7 4 -15z m52 -28 c-4 -28 -60 -130 -64 -118 -3 8 8 40 24 72 27 55 45 75 40
46z m-70 -17 c0 -12 -4 -16 -9 -11 -5 5 -6 14 -3 20 10 15 12 14 12 -9z m-116
-34 c33 -48 43 -90 15 -62 -8 8 -15 22 -15 30 0 9 -4 16 -10 16 -5 0 -9 3 -9
8 3 18 -2 33 -9 28 -5 -3 -9 1 -9 9 0 22 3 20 37 -29z m-122 -40 c71 -35 112
-60 112 -69 0 -10 -56 -2 -96 13 -16 6 -29 10 -29 8 0 -4 -76 43 -105 65 l-25
19 48 -6 c27 -4 70 -17 95 -30z m477 -5 c-33 -21 -76 -43 -95 -49 -60 -18 -90
-23 -90 -14 0 12 132 80 176 91 69 16 70 11 9 -28z"/>
</g>
</svg>
